<svg width="110" height="40" viewBox="0 0 110 40" fill="none" xmlns="http://www.w3.org/2000/svg">
<g id="c">
<path id="Vector" d="M56.8662 30.3005C56.8662 35.1495 53.0461 39.0794 47.1348 39.0794C41.2235 39.0794 37.4033 35.1495 37.4033 30.3005C37.4033 25.4515 41.2235 21.5215 47.1348 21.5215C53.0461 21.5215 56.8662 25.4515 56.8662 30.3005ZM52.1159 30.3005C52.1159 26.2539 50.4683 22.9733 47.1461 22.9733C43.8238 22.9733 42.174 26.2539 42.174 30.3005C42.174 34.347 43.8238 37.63 47.1461 37.63C50.4683 37.63 52.1159 34.3493 52.1159 30.3005ZM10.9224 39.0794C12.269 39.0794 14.4755 39.0794 17.8227 37.8883V32.9982C17.8227 31.1875 18.8818 31.2813 19.9432 31.2813V30.0696H10.7844V31.1578L11.7643 31.3133C13.4752 31.6311 13.5522 31.9031 13.5522 33.396V37.0745C12.8845 37.4951 12.0178 37.6506 10.9677 37.6506C7.5345 37.6506 4.77574 34.8569 4.66937 30.1153C4.75085 26.1053 6.84198 23.0099 10.5784 23.0099C13.3417 23.0099 15.0911 24.1507 15.985 26.9787L17.0759 26.8621L16.6866 22.3812C15.9466 22.1823 13.3417 21.517 10.8907 21.517C7.31045 21.517 4.23711 22.7721 2.44924 24.5805C-0.947718 28.0212 -0.669353 33.2497 2.40851 36.2857C4.39327 38.1718 7.5775 39.0749 10.9224 39.0749M56.8006 17.0155C54.3881 17.0155 52.7337 14.9808 52.091 12.7449L50.9979 12.8638L51.4845 17.0863C52.4486 17.8934 54.585 18.4718 56.6557 18.4718C60.2858 18.4718 63.3139 16.6383 63.2777 13.3027C63.2777 7.30605 55.1734 7.71757 55.1734 4.57406C55.1734 3.29152 56.185 2.37704 57.7579 2.37704C59.5571 2.37704 60.8697 3.33495 61.5803 5.45882L62.6553 5.33994L62.2276 1.57688C61.2522 1.32083 59.7811 0.918457 57.9819 0.918457C54.198 0.918457 51.3668 2.74283 51.3668 5.78346C51.3668 10.8336 59.4507 10.4701 59.4507 14.4229C59.4507 15.7787 58.3961 17.0155 56.7983 17.0155M43.0679 17.0155C40.6554 17.0155 39.0011 14.9808 38.3583 12.7449L37.2652 12.8638L37.7518 17.0863C38.7159 17.8934 40.8523 18.4718 42.9231 18.4718C46.5531 18.4718 49.5812 16.6383 49.545 13.3027C49.545 7.30605 41.4407 7.71757 41.4407 4.57406C41.4407 3.29152 42.4523 2.37704 44.0252 2.37704C45.8244 2.37704 47.137 3.33495 47.8476 5.45882L48.9226 5.33994L48.4949 1.57688C47.5195 1.32083 46.0485 0.918457 44.2493 0.918457C40.4653 0.918457 37.6341 2.74283 37.6341 5.78346C37.6341 10.8336 45.718 10.4701 45.718 14.4229C45.718 15.7787 44.6634 17.0155 43.0656 17.0155M30.7701 1.18594V2.3839C31.8315 2.3839 32.8906 2.29017 32.8906 4.10082V11.1834C32.8906 14.4687 31.9039 16.5148 28.7083 16.5148C25.6984 16.5148 24.5283 14.8733 24.5283 11.3892V4.10082C24.5283 2.29017 25.5875 2.3839 26.6489 2.3839V1.18594H18.1373V2.3839C19.1987 2.3839 20.2578 2.29017 20.2578 4.10082V11.3229C20.2578 17.1481 23.5077 18.4763 27.6605 18.4763C33.78 18.4763 34.7916 14.8345 34.7916 11.2863V4.10082C34.7916 2.29017 35.8508 2.3839 36.9122 2.3839V1.18594H30.7746H30.7701ZM108.83 18.1929L110 13.7371L108.914 13.6136C108.914 13.6136 108.371 16.604 105.13 16.604H101.418V4.10082C101.418 2.29017 102.477 2.3839 103.539 2.3839V1.18594H95.0249V2.3839C96.0863 2.3839 97.1454 2.29017 97.1454 4.10082V15.2803C97.1454 16.6771 96.6679 16.9972 95.6065 16.9972V18.1929H108.832H108.83ZM31.3698 26.7752C31.3698 24.5507 29.9395 22.987 27.8121 22.987H26.3864V30.0696H28.181C30.4804 30.0696 31.3698 28.4967 31.3698 26.7775M22.1136 35.8902V24.7039C22.1136 22.8933 21.0544 22.987 19.993 22.987V21.789H27.3075C29.8218 21.789 31.6798 21.8142 33.1463 22.4795C34.7713 23.2613 35.8168 24.5896 35.8168 26.5031C35.8168 28.7893 34.0901 29.9621 32.6122 30.6183L33.3229 32.006C33.3229 32.006 36.1359 37.55 39.2047 37.8883V38.8074C38.7793 39.0017 38.1614 39.0794 36.8466 39.0794C34.4092 39.0794 32.9019 38.3776 31.3562 36.2697C30.4645 35.0558 28.5477 31.2744 28.5477 31.2744H26.3864V35.8925C26.3864 37.7032 27.4455 37.6094 28.5069 37.6094V38.8097H19.9953V37.6094C21.0567 37.6094 22.1158 37.7032 22.1158 35.8925M78.8095 18.1929L79.9796 13.7371L78.8933 13.6113C78.8933 13.6113 78.3501 16.6017 75.1093 16.6017H70.6758V10.1889H73.5659C75.3583 10.1889 75.2655 11.4989 75.2655 12.5711H76.4649V6.6042H75.2655C75.2655 7.67642 75.3583 8.9864 73.5659 8.9864H70.6758V2.61709H75.0957C76.5374 2.61709 77.4019 5.39709 77.4019 5.39709L78.4882 5.27364L77.7889 1.18594H64.2848V2.3839C65.3462 2.3839 66.4053 2.29017 66.4053 4.10082V15.2803C66.4053 17.0886 65.3462 16.9949 64.2848 16.9949V18.1951H78.8118L78.8095 18.1929ZM94.1762 18.1929L95.3485 13.7371L94.2622 13.6136C94.2622 13.6136 93.719 16.604 90.4782 16.604H86.7667V4.10082C86.7667 2.29017 87.8258 2.3839 88.8873 2.3839V1.18594H80.3734V2.3839C81.4348 2.3839 82.4939 2.29017 82.4939 4.10082V15.2803C82.4939 17.0886 81.4348 16.9949 80.3734 16.9949V18.1951H94.1762V18.1929ZM12.4274 6.17439C12.4274 3.94994 10.9971 2.38619 8.86974 2.38619H7.44397V9.4665H9.23863C11.538 9.4665 12.4274 7.8936 12.4274 6.17439ZM3.17118 15.2871V4.10082C3.17118 2.29017 2.11204 2.3839 1.05063 2.3839V1.18594H8.36507C10.8794 1.18594 12.7374 1.21109 14.2039 1.87637C15.8289 2.65824 16.8744 3.98652 16.8744 5.90234C16.8744 8.18852 15.1477 9.36133 13.6698 10.0175L14.3805 11.4052C14.3805 11.4052 17.1935 16.9492 20.2623 17.2875V18.2066C19.8369 18.4009 19.219 18.4786 17.9042 18.4786C15.4668 18.4786 13.9595 17.7768 12.4115 15.6689C11.5199 14.455 9.603 10.6713 9.603 10.6713H7.44171V15.2917C7.44171 17.1024 8.50085 17.0086 9.56226 17.0086V18.2089H1.05289V17.0086C2.1143 17.0086 3.17344 17.1024 3.17344 15.2917M88.6564 22.6624C87.1876 21.9971 85.3817 21.789 82.8673 21.789H69.4153V22.9893C70.4767 22.9893 71.5358 22.8955 71.5358 24.7062V31.7888C71.5358 35.074 70.5491 37.1202 67.3536 37.1202C64.3436 37.1202 63.1736 35.4787 63.1736 31.9946V24.7062C63.1736 22.8955 64.2327 22.9893 65.2941 22.9893V21.789H56.7825V22.9893C57.8439 22.9893 58.903 22.8955 58.903 24.7062V31.9283C58.903 37.7535 62.1529 39.0817 66.3057 39.0817C72.4252 39.0817 73.4369 35.4398 73.4369 31.8917V24.7085C73.4369 22.8978 74.496 22.9916 75.5574 22.9916C76.6188 22.9916 77.678 22.8978 77.678 24.7085V35.8948C77.678 37.7054 76.6188 37.6117 75.5574 37.6117V38.8097H84.0691V37.6117C83.0076 37.6117 81.9485 37.7054 81.9485 35.8948V31.8848C88.1155 32.7581 91.4333 30.3325 91.4333 27.0312C91.4333 25.0537 90.2836 23.4488 88.6587 22.6692M83.9785 30.6777C82.6387 30.7211 81.953 30.4697 81.953 30.4697L81.9462 22.987H83.372C85.4994 22.987 86.9296 24.7999 86.9296 27.0244C86.9296 29.8067 85.2979 30.6366 83.9808 30.6777" fill="#010D25"/>
</g>
</svg>
